<svg version="1.1" id="Layer_1" xmlns="http://www.w3.org/2000/svg" xmlns:xlink="http://www.w3.org/1999/xlink" x="0px" y="0px"
	 width="100%" viewBox="0 0 500 500" enable-background="new 0 0 500 500" xml:space="preserve">
<path fill="#04448D" opacity="1.000000" stroke="none" 
	d="
M466.000000,501.000000 
	C310.666718,501.000000 155.833405,501.000000 1.000083,501.000000 
	C1.000055,334.333405 1.000055,167.666824 1.000028,1.000173 
	C167.666550,1.000115 334.333099,1.000115 500.999756,1.000057 
	C500.999817,167.666519 500.999817,334.333038 500.999908,500.999756 
	C489.500000,501.000000 478.000000,501.000000 466.000000,501.000000 
M204.638687,257.090942 
	C204.575119,256.858215 204.511551,256.625519 204.447983,256.392792 
	C204.630722,256.619476 204.813446,256.846130 205.667099,257.192963 
	C205.960754,257.777039 206.254425,258.361145 206.082764,259.578308 
	C209.590836,267.999268 209.389130,276.084351 203.983475,283.747009 
	C203.715912,284.126251 203.984955,284.884003 203.789871,285.763763 
	C203.656403,285.817566 203.522919,285.871338 203.389450,285.925140 
	C203.612808,286.101440 203.836151,286.277740 204.648438,287.178436 
	C209.263824,287.214905 214.241226,288.167633 217.009033,282.218140 
	C214.638107,282.108734 212.665634,282.017700 210.656326,281.837677 
	C210.656326,281.837677 210.728043,281.773438 211.327393,281.454254 
	C211.465958,280.641632 211.604507,279.829010 211.760162,278.257141 
	C211.786346,277.501312 211.812515,276.745483 211.727463,275.153229 
	C211.631958,273.942902 211.500076,272.734161 211.447479,271.521973 
	C211.251907,267.016144 211.654953,262.331299 207.120941,258.731293 
	C206.409103,258.200165 205.697281,257.669006 204.638687,257.090942 
M136.062744,277.968689 
	C136.062744,277.968689 135.882645,277.829651 135.882645,277.829651 
	C135.882645,277.829651 136.102219,277.857697 136.816711,278.017822 
	C141.125763,281.017090 155.569366,282.410675 161.791367,280.323853 
	C159.045456,279.883331 156.518799,279.477997 153.922272,278.350647 
	C151.957306,276.618011 149.992325,274.885406 148.956818,273.058685 
	C153.121399,273.050720 157.285965,273.039856 161.450546,273.035675 
	C165.363785,273.031738 169.277023,273.034821 173.190277,273.034821 
	C173.177902,272.635071 173.165543,272.235321 173.153183,271.835571 
	C161.271103,271.835571 149.389023,271.835571 137.506943,271.835571 
	C137.507645,272.170197 137.508331,272.504791 137.509033,272.839417 
	C139.330170,272.943817 141.151321,273.048187 142.826324,273.841431 
	C141.256790,274.407654 139.687271,274.973877 138.270676,275.484894 
	C138.765640,276.183228 139.378891,277.048431 139.014877,278.093353 
	C138.004913,277.984222 136.994934,277.875092 136.062744,277.968689 
M236.146149,253.490799 
	C238.873352,254.850662 241.600571,256.210541 244.327774,257.570404 
	C246.713104,251.720306 250.571106,255.379272 254.234299,256.739227 
	C255.963699,257.827911 257.641724,259.744324 259.431824,259.855438 
	C265.670380,260.242767 271.947693,260.005249 278.627991,260.005249 
	C276.419495,252.326508 268.871368,247.374146 261.856018,247.498138 
	C261.823914,247.328445 261.791779,247.158737 261.722687,246.213333 
	C257.818604,245.459183 253.936279,244.555603 250.005737,243.982956 
	C242.527252,242.893356 235.021210,241.992874 227.295425,240.754959 
	C226.851654,240.588333 226.407883,240.421722 225.969437,239.495911 
	C210.004013,230.613464 192.874725,228.352432 174.368423,229.865662 
	C181.095673,237.373291 187.655807,242.892990 197.964310,240.898117 
	C202.475586,240.025116 207.230423,240.336945 211.876831,240.276413 
	C213.492447,240.255356 215.114578,240.733215 216.733734,240.983215 
	C216.688278,241.384552 216.642838,241.785889 216.597382,242.187225 
	C213.882935,242.187225 211.168472,242.187225 208.454025,242.187225 
	C208.462936,242.309509 208.471848,242.431793 208.480759,242.554077 
	C218.638367,244.041870 228.795959,245.529663 239.105606,247.716019 
	C238.003098,248.587265 236.900589,249.458511 235.301712,251.145752 
	C233.061310,250.469467 230.857574,249.512482 228.567902,249.213348 
	C226.982956,249.006302 225.279465,249.706757 223.628952,250.001709 
	C224.166443,251.570038 224.278381,253.547760 225.320282,254.630875 
	C228.598846,258.039062 232.417023,257.256744 236.146149,253.490799 
M147.013855,236.646286 
	C142.299484,236.231796 136.373291,240.047684 134.265808,244.877380 
	C139.800522,244.560745 145.312744,244.245392 150.261917,243.962250 
	C150.558167,242.263382 150.765823,241.072525 151.533615,240.549744 
	C152.741638,241.703003 153.958084,243.858292 155.156311,243.848190 
	C163.441315,243.778442 171.722519,243.257523 180.320633,242.867203 
	C172.966553,229.978683 157.798141,227.080780 147.013855,236.646286 
M223.442688,272.118958 
	C220.998627,272.118958 218.554550,272.118958 215.728119,272.118958 
	C215.868683,274.795624 215.994843,277.198395 216.171387,280.560333 
	C234.792191,280.560333 253.141174,280.607025 271.489319,280.504639 
	C273.942017,280.490967 276.417786,279.839691 278.833801,279.274017 
	C281.676453,278.608521 283.134430,277.031525 281.695648,273.955811 
	C269.561615,277.346802 257.323059,277.017761 245.073212,276.190857 
	C240.812515,275.903290 236.539795,275.450439 232.342651,274.687500 
	C229.617279,274.192078 227.018646,272.999298 223.442688,272.118958 
M377.489014,235.736633 
	C377.489014,239.044678 377.489014,242.352722 377.489014,245.686279 
	C380.775970,245.308243 381.907013,234.647079 379.741913,224.416336 
	C372.236023,227.346817 374.511902,236.364273 369.413422,240.481644 
	C368.134918,237.293961 366.939026,234.200943 365.658966,231.143158 
	C362.709839,224.098404 363.773987,224.443634 359.195862,225.711517 
	C359.195862,231.460464 359.121368,237.271576 359.263550,243.077377 
	C359.289581,244.139786 360.197266,245.180603 360.697998,246.231384 
	C361.149536,246.054077 361.601105,245.876785 362.052643,245.699478 
	C362.052643,243.730072 362.052673,241.760681 362.052673,239.791275 
	C362.052673,237.856949 362.052643,235.922623 362.052643,233.988297 
	C362.577698,233.946121 363.102753,233.903931 363.627808,233.861755 
	C364.884308,236.872574 366.037323,239.933075 367.447754,242.869980 
	C368.019775,244.061050 369.152649,244.982803 370.030304,246.027115 
	C370.761169,245.039337 371.684418,244.140060 372.187012,243.047287 
	C373.731506,239.689331 375.114899,236.257278 377.027161,231.756638 
	C377.336578,233.623642 377.434937,234.217209 377.489014,235.736633 
M313.913452,272.916779 
	C313.911530,266.485107 313.911530,266.485107 311.008148,266.364868 
	C311.008148,273.134430 311.008148,279.901794 311.008148,287.257812 
	C316.710022,286.050323 311.119263,278.859161 316.709076,278.046692 
	C318.021637,279.764618 319.383881,281.848694 321.057037,283.642853 
	C322.409668,285.093262 324.136780,286.194427 325.697784,287.450531 
	C326.015015,287.075775 326.332245,286.701050 326.649475,286.326324 
	C323.914154,282.652008 321.178802,278.977692 318.395020,275.238312 
	C321.123199,272.123962 323.585846,269.312714 326.048492,266.501495 
	C325.777100,266.150421 325.505676,265.799347 325.234283,265.448273 
	C323.850464,266.291290 322.279510,266.935425 321.124969,268.022034 
	C319.197845,269.835754 317.580170,271.974945 315.716949,273.863403 
	C315.443237,274.140808 314.536041,273.793182 313.913452,272.916779 
M405.715363,246.121170 
	C412.618866,243.072739 414.744110,231.496185 409.143768,226.643051 
	C405.894012,223.826859 402.131226,223.800461 398.632904,226.277969 
	C395.266602,228.662048 394.023224,234.932663 395.624817,240.028503 
	C397.070099,244.627060 400.156128,246.749069 405.715363,246.121170 
M354.642548,271.625305 
	C352.646088,265.867310 350.316986,265.001648 340.030884,266.316010 
	C340.030884,272.424042 339.958344,278.566803 340.112457,284.703827 
	C340.134491,285.580322 341.253571,286.429230 341.864929,287.290894 
	C342.250488,287.107544 342.636047,286.924164 343.021606,286.740784 
	C343.021606,284.141754 343.021606,281.542725 343.021606,279.179413 
	C347.251526,277.602783 348.694611,279.985626 350.184326,282.889923 
	C351.081451,284.638977 352.781769,285.976044 354.121155,287.498230 
	C354.514862,287.148987 354.908600,286.799744 355.302307,286.450470 
	C353.847809,283.712616 352.393280,280.974762 351.361023,279.031738 
	C352.693115,276.365326 353.690613,274.368713 354.642548,271.625305 
M335.378906,224.956268 
	C333.643005,224.956268 331.907074,224.956268 330.028900,224.956268 
	C330.028900,231.476959 329.954803,237.271271 330.094177,243.060440 
	C330.120636,244.159454 330.992798,245.238113 331.474762,246.326157 
	C331.961639,246.175140 332.448486,246.024109 332.935364,245.873093 
	C332.935364,243.286713 332.935364,240.700333 332.935364,238.275314 
	C336.687317,236.763092 338.412292,238.343811 339.862030,241.254349 
	C340.840149,243.218140 342.530243,244.827301 343.901855,246.595093 
	C344.386108,246.227341 344.870361,245.859604 345.354614,245.491852 
	C343.897217,242.800659 342.439819,240.109482 340.982422,237.418289 
	C341.428741,237.473770 341.875061,237.529266 342.321381,237.584747 
	C342.931976,234.638794 344.418640,231.540375 343.938873,228.784210 
	C343.290192,225.057556 339.562256,224.853043 335.378906,224.956268 
M311.920898,225.462509 
	C305.854889,223.941910 302.381256,225.079956 300.392975,229.239304 
	C298.080536,234.076767 298.922668,242.292160 302.700012,244.472122 
	C305.011749,245.806274 308.530334,246.284576 311.077606,245.584717 
	C313.116028,245.024643 314.507111,242.108459 316.185486,240.237961 
	C315.604431,239.762131 315.023376,239.286316 314.442322,238.810501 
	C313.568634,239.843719 312.707733,240.888092 311.818695,241.907928 
	C309.727997,244.306152 307.298645,244.635941 304.765442,242.758926 
	C301.788361,240.552979 301.404602,231.739944 304.164368,228.868393 
	C306.314697,226.630951 308.790222,226.307785 311.237122,228.428207 
	C311.818726,228.932190 311.899231,230.011627 312.478455,230.521942 
	C313.233368,231.186996 314.255676,231.548553 315.162903,232.040710 
	C315.478577,231.660263 315.794220,231.279816 316.109894,230.899384 
	C314.919037,229.214737 313.728180,227.530106 311.920898,225.462509 
M439.293304,243.963486 
	C442.942841,239.418365 443.710083,233.444199 441.051727,229.154587 
	C437.644318,223.656250 432.369965,224.952942 427.309692,225.165512 
	C427.309692,232.289642 427.309692,239.033524 427.309692,246.714401 
	C431.387848,245.900497 435.030365,245.173553 439.293304,243.963486 
M429.985077,278.321991 
	C428.639252,274.767029 427.361450,271.183533 425.893036,267.679962 
	C425.581451,266.936554 424.584991,266.044891 423.884613,266.027985 
	C423.244904,266.012573 422.268921,266.965515 421.973114,267.704590 
	C419.478119,273.937500 417.105377,280.219360 414.562683,286.832977 
	C419.529724,287.781128 418.427887,281.162994 423.752197,281.162933 
	C429.024200,281.162872 428.406097,287.719147 433.260742,286.846802 
	C432.132599,283.964844 431.174103,281.516296 429.985077,278.321991 
M396.011475,274.531372 
	C396.011475,272.579346 396.011475,270.627319 396.011475,268.790375 
	C398.624084,268.358856 400.793243,268.000610 402.962433,267.642334 
	C402.887360,267.253784 402.812286,266.865265 402.737213,266.476715 
	C397.269318,266.476715 391.801422,266.476715 386.333496,266.476715 
	C386.294769,266.928040 386.256012,267.379364 386.217285,267.830688 
	C388.443756,268.117096 390.670227,268.403503 392.701202,268.664795 
	C394.009277,274.951233 391.659119,281.378296 394.100861,287.081940 
	C394.737732,287.012634 395.374603,286.943298 396.011475,286.873993 
	C396.011475,283.086792 396.011475,279.299591 396.011475,274.531372 
M251.914978,283.118744 
	C250.231369,283.118744 248.547745,283.118744 246.149521,283.118744 
	C254.127411,289.978638 261.416901,289.849640 268.835388,283.118927 
	C263.297180,283.118927 258.053864,283.118927 251.914978,283.118744 
M369.155426,274.605469 
	C369.156158,277.930817 369.016479,281.265930 369.246979,284.575287 
	C369.312347,285.513428 370.457672,286.376404 371.107727,287.273834 
	C371.431335,287.023315 371.754974,286.772797 372.078583,286.522278 
	C372.078583,279.736908 372.078583,272.951538 372.078583,266.166199 
	C370.490204,266.449921 369.411102,267.239746 369.245483,268.188934 
	C368.935730,269.963867 369.155823,271.831268 369.155426,274.605469 
M160.066956,269.056030 
	C160.900116,268.976990 161.733261,268.897949 163.456451,268.734497 
	C154.070969,266.054535 144.885117,268.800995 136.351807,265.747650 
	C138.318665,266.951965 140.454391,268.602783 142.711624,268.790161 
	C148.161804,269.242645 153.668762,269.011566 160.066956,269.056030 
M172.247818,281.676666 
	C169.460663,278.565247 166.418961,280.046906 163.447281,280.264984 
	C163.420502,280.817169 163.393738,281.369385 163.366959,281.921600 
	C166.084961,281.921600 168.802948,281.921600 172.247818,281.676666 
z"/>
<path fill="#F7F7F7" opacity="1.000000" stroke="none" 
	d="
M227.526611,241.013870 
	C235.021210,241.992874 242.527252,242.893356 250.005737,243.982956 
	C253.936279,244.555603 257.818604,245.459183 261.320557,246.592621 
	C258.804321,246.971893 256.690247,246.971893 254.576141,246.971893 
	C254.630447,247.671265 254.684738,248.370651 254.739044,249.070023 
	C257.180969,248.704132 259.622925,248.338242 262.064850,247.972351 
	C268.871368,247.374146 276.419495,252.326508 278.627991,260.005249 
	C271.947693,260.005249 265.670380,260.242767 259.431824,259.855438 
	C257.641724,259.744324 255.963699,257.827911 254.046051,256.037689 
	C248.889725,252.563248 243.921646,249.790359 238.953568,247.017456 
	C228.795959,245.529663 218.638367,244.041870 208.480759,242.554077 
	C208.471848,242.431793 208.462936,242.309509 208.454025,242.187225 
	C211.168472,242.187225 213.882935,242.187225 216.597382,242.187225 
	C216.642838,241.785889 216.688278,241.384552 216.733734,240.983215 
	C215.114578,240.733215 213.492447,240.255356 211.876831,240.276413 
	C207.230423,240.336945 202.475586,240.025116 197.964310,240.898117 
	C187.655807,242.892990 181.095673,237.373291 174.368423,229.865662 
	C192.874725,228.352432 210.004013,230.613464 226.103119,240.060638 
	C226.666748,240.754868 227.096680,240.884369 227.526611,241.013870 
z"/>
<path fill="#F1F1F1" opacity="1.000000" stroke="none" 
	d="
M223.902954,272.118958 
	C227.018646,272.999298 229.617279,274.192078 232.342651,274.687500 
	C236.539795,275.450439 240.812515,275.903290 245.073212,276.190857 
	C257.323059,277.017761 269.561615,277.346802 281.695648,273.955811 
	C283.134430,277.031525 281.676453,278.608521 278.833801,279.274017 
	C276.417786,279.839691 273.942017,280.490967 271.489319,280.504639 
	C253.141174,280.607025 234.792191,280.560333 216.171387,280.560333 
	C215.994843,277.198395 215.868683,274.795624 215.728119,272.118958 
	C218.554550,272.118958 220.998627,272.118958 223.902954,272.118958 
z"/>
<path fill="#F5F5F5" opacity="1.000000" stroke="none" 
	d="
M147.263016,235.992569 
	C157.798141,227.080780 172.966553,229.978683 180.320633,242.867203 
	C171.722519,243.257523 163.441315,243.778442 155.156311,243.848190 
	C153.958084,243.858292 152.741638,241.703003 151.248627,239.929993 
	C149.730087,238.204361 148.496552,237.098465 147.263016,235.992569 
z"/>
<path fill="#E4E4E4" opacity="1.000000" stroke="none" 
	d="
M377.511169,235.273697 
	C377.434937,234.217209 377.336578,233.623642 377.027161,231.756638 
	C375.114899,236.257278 373.731506,239.689331 372.187012,243.047287 
	C371.684418,244.140060 370.761169,245.039337 370.030304,246.027115 
	C369.152649,244.982803 368.019775,244.061050 367.447754,242.869980 
	C366.037323,239.933075 364.884308,236.872574 363.627808,233.861755 
	C363.102753,233.903931 362.577698,233.946121 362.052643,233.988297 
	C362.052643,235.922623 362.052673,237.856949 362.052673,239.791275 
	C362.052673,241.760681 362.052643,243.730072 362.052643,245.699478 
	C361.601105,245.876785 361.149536,246.054077 360.697998,246.231384 
	C360.197266,245.180603 359.289581,244.139786 359.263550,243.077377 
	C359.121368,237.271576 359.195862,231.460464 359.195862,225.711517 
	C363.773987,224.443634 362.709839,224.098404 365.658966,231.143158 
	C366.939026,234.200943 368.134918,237.293961 369.413422,240.481644 
	C374.511902,236.364273 372.236023,227.346817 379.741913,224.416336 
	C381.907013,234.647079 380.775970,245.308243 377.489014,245.686279 
	C377.489014,242.352722 377.489014,239.044678 377.511169,235.273697 
z"/>
<path fill="#E8E8E8" opacity="1.000000" stroke="none" 
	d="
M313.917725,273.325775 
	C314.536041,273.793182 315.443237,274.140808 315.716949,273.863403 
	C317.580170,271.974945 319.197845,269.835754 321.124969,268.022034 
	C322.279510,266.935425 323.850464,266.291290 325.234283,265.448273 
	C325.505676,265.799347 325.777100,266.150421 326.048492,266.501495 
	C323.585846,269.312714 321.123199,272.123962 318.395020,275.238312 
	C321.178802,278.977692 323.914154,282.652008 326.649475,286.326324 
	C326.332245,286.701050 326.015015,287.075775 325.697784,287.450531 
	C324.136780,286.194427 322.409668,285.093262 321.057037,283.642853 
	C319.383881,281.848694 318.021637,279.764618 316.709076,278.046692 
	C311.119263,278.859161 316.710022,286.050323 311.008148,287.257812 
	C311.008148,279.901794 311.008148,273.134430 311.008148,266.364868 
	C313.911530,266.485107 313.911530,266.485107 313.917725,273.325775 
z"/>
<path fill="#E8E8E8" opacity="1.000000" stroke="none" 
	d="
M405.352478,246.177795 
	C400.156128,246.749069 397.070099,244.627060 395.624817,240.028503 
	C394.023224,234.932663 395.266602,228.662048 398.632904,226.277969 
	C402.131226,223.800461 405.894012,223.826859 409.143768,226.643051 
	C414.744110,231.496185 412.618866,243.072739 405.352478,246.177795 
M402.034027,243.532242 
	C405.673767,244.483353 408.170319,242.847366 408.746857,239.464630 
	C409.427277,235.472412 410.506317,230.875549 406.317566,228.003891 
	C403.554779,226.109833 400.833740,227.123169 399.115143,230.027344 
	C396.855499,233.845764 397.903442,239.743576 402.034027,243.532242 
z"/>
<path fill="#E8E8E8" opacity="1.000000" stroke="none" 
	d="
M354.665344,271.998688 
	C353.690613,274.368713 352.693115,276.365326 351.361023,279.031738 
	C352.393280,280.974762 353.847809,283.712616 355.302307,286.450470 
	C354.908600,286.799744 354.514862,287.148987 354.121155,287.498230 
	C352.781769,285.976044 351.081451,284.638977 350.184326,282.889923 
	C348.694611,279.985626 347.251526,277.602783 343.021606,279.179413 
	C343.021606,281.542725 343.021606,284.141754 343.021606,286.740784 
	C342.636047,286.924164 342.250488,287.107544 341.864929,287.290894 
	C341.253571,286.429230 340.134491,285.580322 340.112457,284.703827 
	C339.958344,278.566803 340.030884,272.424042 340.030884,266.316010 
	C350.316986,265.001648 352.646088,265.867310 354.665344,271.998688 
M347.826324,268.383026 
	C346.372284,268.383026 344.918243,268.383026 343.260529,268.383026 
	C343.260529,271.093475 343.260529,273.498077 343.260529,277.381897 
	C346.462219,275.848755 348.893738,274.684448 351.325226,273.520111 
	C350.415497,271.866119 349.505798,270.212158 347.826324,268.383026 
z"/>
<path fill="#E8E8E8" opacity="1.000000" stroke="none" 
	d="
M335.829315,224.956314 
	C339.562256,224.853043 343.290192,225.057556 343.938873,228.784210 
	C344.418640,231.540375 342.931976,234.638794 342.321381,237.584747 
	C341.875061,237.529266 341.428741,237.473770 340.982422,237.418289 
	C342.439819,240.109482 343.897217,242.800659 345.354614,245.491852 
	C344.870361,245.859604 344.386108,246.227341 343.901855,246.595093 
	C342.530243,244.827301 340.840149,243.218140 339.862030,241.254349 
	C338.412292,238.343811 336.687317,236.763092 332.935364,238.275314 
	C332.935364,240.700333 332.935364,243.286713 332.935364,245.873093 
	C332.448486,246.024109 331.961639,246.175140 331.474762,246.326157 
	C330.992798,245.238113 330.120636,244.159454 330.094177,243.060440 
	C329.954803,237.271271 330.028900,231.476959 330.028900,224.956268 
	C331.907074,224.956268 333.643005,224.956268 335.829315,224.956314 
M335.379028,227.299744 
	C330.172852,228.678680 334.288055,232.382782 332.856812,235.169601 
	C336.546478,234.694199 340.704987,236.546432 341.467499,231.629013 
	C342.023621,228.042282 339.124298,227.353851 335.379028,227.299744 
z"/>
<path fill="#E2E2E2" opacity="1.000000" stroke="none" 
	d="
M312.229126,225.653992 
	C313.728180,227.530106 314.919037,229.214737 316.109894,230.899384 
	C315.794220,231.279816 315.478577,231.660263 315.162903,232.040710 
	C314.255676,231.548553 313.233368,231.186996 312.478455,230.521942 
	C311.899231,230.011627 311.818726,228.932190 311.237122,228.428207 
	C308.790222,226.307785 306.314697,226.630951 304.164368,228.868393 
	C301.404602,231.739944 301.788361,240.552979 304.765442,242.758926 
	C307.298645,244.635941 309.727997,244.306152 311.818695,241.907928 
	C312.707733,240.888092 313.568634,239.843719 314.442322,238.810501 
	C315.023376,239.286316 315.604431,239.762131 316.185486,240.237961 
	C314.507111,242.108459 313.116028,245.024643 311.077606,245.584717 
	C308.530334,246.284576 305.011749,245.806274 302.700012,244.472122 
	C298.922668,242.292160 298.080536,234.076767 300.392975,229.239304 
	C302.381256,225.079956 305.854889,223.941910 312.229126,225.653992 
z"/>
<path fill="#E8E8E8" opacity="1.000000" stroke="none" 
	d="
M438.983093,244.205048 
	C435.030365,245.173553 431.387848,245.900497 427.309692,246.714401 
	C427.309692,239.033524 427.309692,232.289642 427.309692,225.165512 
	C432.369965,224.952942 437.644318,223.656250 441.051727,229.154587 
	C443.710083,233.444199 442.942841,239.418365 438.983093,244.205048 
M430.014862,229.979385 
	C430.014862,234.508820 430.014862,239.038254 430.014862,243.561905 
	C438.308167,243.422485 441.961975,237.659683 438.804108,230.841904 
	C437.134033,227.236237 432.540436,226.322159 430.014862,229.979385 
z"/>
<path fill="#E2E2E2" opacity="1.000000" stroke="none" 
	d="
M430.100342,278.694855 
	C431.174103,281.516296 432.132599,283.964844 433.260742,286.846802 
	C428.406097,287.719147 429.024200,281.162872 423.752197,281.162933 
	C418.427887,281.162994 419.529724,287.781128 414.562683,286.832977 
	C417.105377,280.219360 419.478119,273.937500 421.973114,267.704590 
	C422.268921,266.965515 423.244904,266.012573 423.884613,266.027985 
	C424.584991,266.044891 425.581451,266.936554 425.893036,267.679962 
	C427.361450,271.183533 428.639252,274.767029 430.100342,278.694855 
M421.820404,279.043762 
	C423.456146,279.043762 425.091858,279.043762 427.337891,279.043762 
	C426.140076,276.027344 425.126984,273.476013 423.616608,269.672455 
	C422.487946,273.665619 421.777771,276.178345 421.820404,279.043762 
z"/>
<path fill="#EEEEEE" opacity="1.000000" stroke="none" 
	d="
M204.004150,285.465515 
	C203.984955,284.884003 203.715912,284.126251 203.983475,283.747009 
	C209.389130,276.084351 209.590836,267.999268 206.477875,259.323486 
	C206.872986,259.068634 207.219788,259.096893 207.219788,259.096893 
	C207.219788,259.096893 207.563110,259.040314 207.563110,259.040314 
	C211.654953,262.331299 211.251907,267.016144 211.447479,271.521973 
	C211.500076,272.734161 211.631958,273.942902 211.463974,275.626007 
	C211.381348,277.071320 211.562195,278.043854 211.743042,279.016388 
	C211.604507,279.829010 211.465958,280.641632 210.743134,281.449097 
	C209.792633,281.416534 209.426392,281.389191 209.060165,281.361847 
	C209.047592,281.485352 209.035004,281.608887 209.022430,281.732422 
	C209.579346,281.797180 210.136246,281.861938 210.693161,281.926666 
	C212.665634,282.017700 214.638107,282.108734 217.009033,282.218140 
	C214.241226,288.167633 209.263824,287.214905 204.390228,286.693390 
	C204.169373,285.944611 204.126755,285.696991 204.004150,285.465515 
z"/>
<path fill="#EEEEEE" opacity="1.000000" stroke="none" 
	d="
M147.138428,236.319427 
	C148.496552,237.098465 149.730087,238.204361 150.968567,239.595947 
	C150.765823,241.072525 150.558167,242.263382 150.261917,243.962250 
	C145.312744,244.245392 139.800522,244.560745 134.265808,244.877380 
	C136.373291,240.047684 142.299484,236.231796 147.138428,236.319427 
z"/>
<path fill="#F1F1F1" opacity="1.000000" stroke="none" 
	d="
M396.011475,275.021881 
	C396.011475,279.299591 396.011475,283.086792 396.011475,286.873993 
	C395.374603,286.943298 394.737732,287.012634 394.100861,287.081940 
	C391.659119,281.378296 394.009277,274.951233 392.701202,268.664795 
	C390.670227,268.403503 388.443756,268.117096 386.217285,267.830688 
	C386.256012,267.379364 386.294769,266.928040 386.333496,266.476715 
	C391.801422,266.476715 397.269318,266.476715 402.737213,266.476715 
	C402.812286,266.865265 402.887360,267.253784 402.962433,267.642334 
	C400.793243,268.000610 398.624084,268.358856 396.011475,268.790375 
	C396.011475,270.627319 396.011475,272.579346 396.011475,275.021881 
z"/>
<path fill="#EEEEEE" opacity="1.000000" stroke="none" 
	d="
M239.029587,247.366745 
	C243.921646,249.790359 248.889725,252.563248 253.914154,255.706589 
	C250.571106,255.379272 246.713104,251.720306 244.327774,257.570404 
	C241.600571,256.210541 238.873352,254.850662 236.084503,252.728714 
	C235.947937,251.421005 235.873001,250.875366 235.798065,250.329742 
	C236.900589,249.458511 238.003098,248.587265 239.029587,247.366745 
z"/>
<path fill="#F1F1F1" opacity="1.000000" stroke="none" 
	d="
M252.362762,283.118835 
	C258.053864,283.118927 263.297180,283.118927 268.835388,283.118927 
	C261.416901,289.849640 254.127411,289.978638 246.149521,283.118744 
	C248.547745,283.118744 250.231369,283.118744 252.362762,283.118835 
z"/>
<path fill="#E4E4E4" opacity="1.000000" stroke="none" 
	d="
M369.155457,274.132843 
	C369.155823,271.831268 368.935730,269.963867 369.245483,268.188934 
	C369.411102,267.239746 370.490204,266.449921 372.078583,266.166199 
	C372.078583,272.951538 372.078583,279.736908 372.078583,286.522278 
	C371.754974,286.772797 371.431335,287.023315 371.107727,287.273834 
	C370.457672,286.376404 369.312347,285.513428 369.246979,284.575287 
	C369.016479,281.265930 369.156158,277.930817 369.155457,274.132843 
z"/>
<path fill="#E8E8E8" opacity="1.000000" stroke="none" 
	d="
M235.549896,250.737747 
	C235.873001,250.875366 235.947937,251.421005 236.041748,252.378662 
	C232.417023,257.256744 228.598846,258.039062 225.320282,254.630875 
	C224.278381,253.547760 224.166443,251.570038 223.628937,250.001709 
	C225.279465,249.706757 226.982956,249.006302 228.567902,249.213348 
	C230.857574,249.512482 233.061310,250.469467 235.549896,250.737747 
z"/>
<path fill="#E2E2E2" opacity="1.000000" stroke="none" 
	d="
M159.609894,269.056061 
	C153.668762,269.011566 148.161804,269.242645 142.711624,268.790161 
	C140.454391,268.602783 138.318665,266.951965 136.351807,265.747650 
	C144.885117,268.800995 154.070969,266.054535 163.456451,268.734497 
	C161.733261,268.897949 160.900116,268.976990 159.609894,269.056061 
z"/>
<path fill="#7D7D7D" opacity="1.000000" stroke="none" 
	d="
M142.972473,273.152588 
	C141.151321,273.048187 139.330170,272.943817 137.509033,272.839417 
	C137.508331,272.504791 137.507645,272.170197 137.506943,271.835571 
	C149.389023,271.835571 161.271103,271.835571 173.153183,271.835571 
	C173.165543,272.235321 173.177902,272.635071 173.190277,273.034821 
	C169.277023,273.034821 165.363785,273.031738 161.450546,273.035675 
	C157.285965,273.039856 153.121399,273.050720 148.074371,273.038147 
	C145.785446,273.062592 144.378952,273.107605 142.972473,273.152588 
z"/>
<path fill="#101010" opacity="1.000000" stroke="none" 
	d="
M142.899399,273.497009 
	C144.378952,273.107605 145.785446,273.062592 147.609650,273.085175 
	C149.992325,274.885406 151.957306,276.618011 153.559753,278.795349 
	C152.127380,279.112671 151.057526,278.985291 149.926056,278.539856 
	C149.166656,278.398010 148.468842,278.574188 147.339935,278.779175 
	C144.603271,278.509888 142.297699,278.211761 139.992142,277.913635 
	C139.378891,277.048431 138.765640,276.183228 138.270676,275.484894 
	C139.687271,274.973877 141.256790,274.407654 142.899399,273.497009 
z"/>
<path fill="#E2E2E2" opacity="1.000000" stroke="none" 
	d="
M139.503510,278.003510 
	C142.297699,278.211761 144.603271,278.509888 147.608337,278.862335 
	C148.867767,278.897064 149.427719,278.877502 149.987656,278.857910 
	C151.057526,278.985291 152.127380,279.112671 153.594696,279.156342 
	C156.518799,279.477997 159.045456,279.883331 161.791367,280.323853 
	C155.569366,282.410675 141.125763,281.017090 136.422104,277.925110 
	C136.027496,277.832397 135.984970,277.765991 135.984970,277.765991 
	C136.994934,277.875092 138.004913,277.984222 139.503510,278.003510 
z"/>
<path fill="#545454" opacity="1.000000" stroke="none" 
	d="
M171.884384,281.799133 
	C168.802948,281.921600 166.084961,281.921600 163.366959,281.921600 
	C163.393738,281.369385 163.420502,280.817169 163.447281,280.264984 
	C166.418961,280.046906 169.460663,278.565247 171.884384,281.799133 
z"/>
<path fill="#EEEEEE" opacity="1.000000" stroke="none" 
	d="
M261.960449,247.735229 
	C259.622925,248.338242 257.180969,248.704132 254.739044,249.070023 
	C254.684738,248.370651 254.630447,247.671265 254.576141,246.971893 
	C256.690247,246.971893 258.804321,246.971893 261.339020,246.980469 
	C261.791779,247.158737 261.823914,247.328445 261.960449,247.735229 
z"/>
<path fill="#E2E2E2" opacity="1.000000" stroke="none" 
	d="
M207.342026,258.885803 
	C207.563110,259.040314 207.219788,259.096893 207.219788,259.096893 
	C207.219788,259.096893 206.872986,259.068634 206.710541,259.006927 
	C206.254425,258.361145 205.960754,257.777039 205.323486,257.144806 
	C204.979889,257.096649 204.985458,257.137878 204.985458,257.137878 
	C205.697281,257.669006 206.409103,258.200165 207.342026,258.885803 
z"/>
<path fill="#E2E2E2" opacity="1.000000" stroke="none" 
	d="
M211.751602,278.636780 
	C211.562195,278.043854 211.381348,277.071320 211.519592,276.044220 
	C211.812515,276.745483 211.786346,277.501312 211.751602,278.636780 
z"/>
<path fill="#E2E2E2" opacity="1.000000" stroke="none" 
	d="
M203.897003,285.614624 
	C204.126755,285.696991 204.169373,285.944611 204.095764,286.331207 
	C203.836151,286.277740 203.612808,286.101440 203.389435,285.925110 
	C203.522919,285.871338 203.656403,285.817566 203.897003,285.614624 
z"/>
<path fill="#E2E2E2" opacity="1.000000" stroke="none" 
	d="
M204.988037,257.084717 
	C204.813446,256.846130 204.630722,256.619476 204.447983,256.392792 
	C204.511551,256.625519 204.575119,256.858215 204.812073,257.114410 
	C204.985458,257.137878 204.979889,257.096649 204.988037,257.084717 
z"/>
<path fill="#F3F3F3" opacity="1.000000" stroke="none" 
	d="
M227.411011,240.884415 
	C227.096680,240.884369 226.666748,240.754868 226.100464,240.440247 
	C226.407883,240.421722 226.851654,240.588333 227.411011,240.884415 
z"/>
<path fill="#E2E2E2" opacity="1.000000" stroke="none" 
	d="
M210.674744,281.882172 
	C210.136246,281.861938 209.579346,281.797180 209.022430,281.732422 
	C209.035004,281.608887 209.047592,281.485352 209.060165,281.361847 
	C209.426392,281.389191 209.792633,281.416534 210.443451,281.608673 
	C210.728043,281.773438 210.656326,281.837677 210.674744,281.882172 
z"/>
<path fill="#E2E2E2" opacity="1.000000" stroke="none" 
	d="
M136.064850,277.845032 
	C136.102219,277.857697 135.882645,277.829651 135.882645,277.829651 
	C135.882645,277.829651 136.062744,277.968689 136.023865,277.867340 
	C135.984970,277.765991 136.027496,277.832397 136.064850,277.845032 
z"/>
<path fill="#0A0A0A" opacity="1.000000" stroke="none" 
	d="
M401.683807,243.361038 
	C397.903442,239.743576 396.855499,233.845764 399.115143,230.027344 
	C400.833740,227.123169 403.554779,226.109833 406.317566,228.003891 
	C410.506317,230.875549 409.427277,235.472412 408.746857,239.464630 
	C408.170319,242.847366 405.673767,244.483353 401.683807,243.361038 
z"/>
<path fill="#101010" opacity="1.000000" stroke="none" 
	d="
M348.211182,268.470581 
	C349.505798,270.212158 350.415497,271.866119 351.325226,273.520142 
	C348.893738,274.684448 346.462219,275.848755 343.260529,277.381897 
	C343.260529,273.498077 343.260529,271.093475 343.260529,268.383026 
	C344.918243,268.383026 346.372284,268.383026 348.211182,268.470581 
z"/>
<path fill="#101010" opacity="1.000000" stroke="none" 
	d="
M335.792450,227.299866 
	C339.124298,227.353851 342.023621,228.042282 341.467499,231.629013 
	C340.704987,236.546432 336.546478,234.694199 332.856812,235.169601 
	C334.288055,232.382782 330.172852,228.678680 335.792450,227.299866 
z"/>
<path fill="#0A0A0A" opacity="1.000000" stroke="none" 
	d="
M430.018494,229.536896 
	C432.540436,226.322159 437.134033,227.236237 438.804108,230.841904 
	C441.961975,237.659683 438.308167,243.422485 430.014862,243.561905 
	C430.014862,239.038254 430.014862,234.508820 430.018494,229.536896 
z"/>
<path fill="#101010" opacity="1.000000" stroke="none" 
	d="
M421.443970,278.867432 
	C421.777771,276.178345 422.487946,273.665619 423.616608,269.672455 
	C425.126984,273.476013 426.140076,276.027344 427.337891,279.043762 
	C425.091858,279.043762 423.456146,279.043762 421.443970,278.867432 
z"/>
<path fill="#000000" opacity="1.000000" stroke="none" 
	d="
M149.926056,278.539856 
	C149.427719,278.877502 148.867767,278.897064 148.039429,278.833496 
	C148.468842,278.574188 149.166656,278.398010 149.926056,278.539856 
z"/>
</svg>